<svg width="29" height="28" viewBox="0 0 29 28" fill="none" xmlns="http://www.w3.org/2000/svg">
<path d="M14.5007 11.6668C13.8563 11.6668 13.334 12.1891 13.334 12.8334C13.334 13.4778 13.8563 14.0001 14.5007 14.0001H14.5111C15.1555 14.0001 15.6778 13.4778 15.6778 12.8334C15.6778 12.1891 15.1555 11.6668 14.5111 11.6668H14.5007Z" fill="#067647"/>
<path fill-rule="evenodd" clip-rule="evenodd" d="M14.3094 2.04175C13.5446 2.04171 12.8863 2.04168 12.346 2.11364C11.7611 2.19156 11.2287 2.36259 10.755 2.76089C10.2928 3.14953 10.0083 3.65277 9.77816 4.22989C9.57697 4.73446 9.3911 5.36694 9.17407 6.12497L5.61705 6.12488C5.16092 6.12432 4.76 6.12383 4.41583 6.22214C3.42429 6.5054 2.70858 7.35726 2.56396 8.37212C2.51362 8.72537 2.56239 9.12431 2.62001 9.59564L2.64833 9.82876C2.81906 11.2385 2.92291 12.096 3.18435 12.8233C3.32641 13.2185 3.50301 13.5955 3.71037 13.9506C3.70946 13.967 3.709 13.9835 3.709 14.0001L3.709 17.597C3.70896 19.3163 3.70893 20.7095 3.88092 21.8066C4.06172 22.96 4.44868 23.9058 5.30526 24.6405C6.14246 25.3585 7.18726 25.6672 8.46246 25.8143C9.71281 25.9584 11.3124 25.9584 13.3417 25.9584H15.6596C17.6889 25.9584 19.2885 25.9584 20.5389 25.8143C21.8141 25.6672 22.8589 25.3585 23.6961 24.6405C24.5527 23.9058 24.9396 22.96 25.1204 21.8066C25.2924 20.7095 25.2924 19.3163 25.2923 17.597V14.0001C25.2923 13.9835 25.2919 13.967 25.291 13.9506C25.4983 13.5955 25.6749 13.2185 25.817 12.8233C26.0784 12.096 26.1823 11.2385 26.353 9.82876L26.3813 9.59566C26.4389 9.12432 26.4877 8.72537 26.4374 8.37212C26.2928 7.35726 25.577 6.5054 24.5855 6.22214C24.2413 6.12383 23.8404 6.12432 23.3843 6.12488L19.8273 6.12497C19.6102 5.36694 19.4244 4.73446 19.2232 4.22989C18.9931 3.65277 18.7085 3.14953 18.2464 2.7609C17.7727 2.36259 17.2403 2.19156 16.6553 2.11364C16.115 2.04168 15.4568 2.04171 14.692 2.04175H14.3094ZM18.0056 6.12497C17.8523 5.60137 17.7263 5.20063 17.5977 4.87806C17.4183 4.42836 17.269 4.2255 17.1201 4.10029C16.9827 3.98476 16.8037 3.89887 16.4243 3.84832C16.013 3.79354 15.4722 3.79175 14.6371 3.79175H14.3642C13.5291 3.79175 12.9884 3.79354 12.5771 3.84832C12.1976 3.89887 12.0187 3.98476 11.8813 4.10029C11.7324 4.2255 11.583 4.42836 11.4037 4.87806C11.2751 5.20063 11.149 5.60137 10.9957 6.12497H18.0056ZM5.459 17.5234V15.9171C6.15239 16.4374 6.94957 16.8202 7.8132 17.0293C8.55375 17.2086 9.40021 17.2085 10.7702 17.2083H18.2311C19.6011 17.2085 20.4476 17.2086 21.1881 17.0293C22.0518 16.8202 22.8489 16.4374 23.5423 15.9171V17.5234C23.5423 19.334 23.5398 20.5896 23.3915 21.5356C23.2496 22.4409 22.9911 22.9396 22.5568 23.3121C22.1031 23.7012 21.4636 23.946 20.3384 24.0758C19.2001 24.207 17.7015 24.2084 15.6025 24.2084H13.3988C11.2999 24.2084 9.80126 24.207 8.66292 24.0758C7.53772 23.946 6.89823 23.7012 6.44453 23.3121C6.01022 22.9396 5.75172 22.4409 5.6098 21.5356C5.46151 20.5896 5.459 19.334 5.459 17.5234ZM4.89653 7.90483C4.97085 7.8836 5.09721 7.87497 5.72222 7.87497H23.2791C23.9041 7.87497 24.0305 7.8836 24.1048 7.90483C24.4084 7.99155 24.6541 8.26278 24.7049 8.61899C24.718 8.71086 24.7082 8.85489 24.6314 9.48894C24.44 11.0681 24.3562 11.7137 24.1701 12.2314C23.6075 13.7966 22.3277 14.9529 20.7764 15.3285C20.2652 15.4522 19.6441 15.4583 18.097 15.4583H10.9043C9.35719 15.4583 8.73617 15.4522 8.22498 15.3285C6.67361 14.9529 5.39382 13.7966 4.83119 12.2314C4.64513 11.7137 4.56138 11.0681 4.36996 9.48894C4.2931 8.85489 4.28337 8.71086 4.29646 8.61899C4.34722 8.26278 4.59297 7.99155 4.89653 7.90483Z" fill="#067647"/>
</svg>
