<svg width="20" height="20" viewBox="0 0 20 20" fill="none" xmlns="http://www.w3.org/2000/svg">
<path fill-rule="evenodd" clip-rule="evenodd" d="M9.16406 1.04175C4.67675 1.04175 1.03906 4.67943 1.03906 9.16675C1.03906 13.6541 4.67675 17.2917 9.16406 17.2917C11.1827 17.2917 13.0295 16.5556 14.4504 15.337L17.8888 18.7754C18.1329 19.0194 18.5286 19.0194 18.7727 18.7754C19.0168 18.5313 19.0168 18.1356 18.7727 17.8915L15.3343 14.4531C16.5529 13.0322 17.2891 11.1854 17.2891 9.16675C17.2891 4.67943 13.6514 1.04175 9.16406 1.04175ZM2.28906 9.16675C2.28906 5.36979 5.36711 2.29175 9.16406 2.29175C12.961 2.29175 16.0391 5.36979 16.0391 9.16675C16.0391 12.9637 12.961 16.0417 9.16406 16.0417C5.36711 16.0417 2.28906 12.9637 2.28906 9.16675Z" fill="#161616"/>
</svg>
