<svg width="29" height="28" viewBox="0 0 29 28" fill="none" xmlns="http://www.w3.org/2000/svg">
<path d="M19.7083 12.8333C19.7083 12.35 20.1001 11.9583 20.5833 11.9583H21.75C22.2332 11.9583 22.625 12.35 22.625 12.8333C22.625 13.3165 22.2332 13.7083 21.75 13.7083H20.5833C20.1001 13.7083 19.7083 13.3165 19.7083 12.8333Z" fill="#067647"/>
<path d="M19.7083 17.4999C19.7083 17.0167 20.1001 16.6249 20.5833 16.6249H21.75C22.2332 16.6249 22.625 17.0167 22.625 17.4999C22.625 17.9832 22.2332 18.3749 21.75 18.3749H20.5833C20.1001 18.3749 19.7083 17.9832 19.7083 17.4999Z" fill="#067647"/>
<path fill-rule="evenodd" clip-rule="evenodd" d="M9.56402 1.45825H9.43598C7.84047 1.45823 6.55442 1.45821 5.54296 1.5942C4.49283 1.73538 3.60865 2.03743 2.90641 2.73966C2.20417 3.4419 1.90213 4.32608 1.76095 5.37621C1.62496 6.38767 1.62498 7.6737 1.625 9.26921V12.8333C1.625 13.3165 2.01675 13.7083 2.5 13.7083C2.98325 13.7083 3.375 13.3165 3.375 12.8333V9.33325C3.375 7.6586 3.37686 6.49064 3.49534 5.60939C3.61044 4.75332 3.82096 4.29999 4.14385 3.9771C4.46674 3.65421 4.92007 3.44369 5.77614 3.32859C6.65738 3.21011 7.82535 3.20825 9.5 3.20825C11.1747 3.20825 12.3426 3.21011 13.2239 3.32859C14.0799 3.44369 14.5333 3.65421 14.8562 3.9771C15.179 4.29999 15.3896 4.75332 15.5047 5.60939C15.6231 6.49064 15.625 7.6586 15.625 9.33325V25.6666C15.625 26.1498 16.0168 26.5416 16.5 26.5416H21.2273C22.2756 26.5416 23.1496 26.5417 23.8436 26.4484C24.576 26.3499 25.2373 26.1333 25.7686 25.6019C26.3 25.0705 26.5166 24.4092 26.6151 23.6768C26.7084 22.9829 26.7084 22.1088 26.7083 21.0606V13.9393C26.7084 12.891 26.7084 12.0169 26.6151 11.323C26.5166 10.5906 26.3 9.92933 25.7686 9.39795C25.2373 8.86657 24.576 8.64995 23.8436 8.55148C23.1496 8.45819 22.2756 8.45822 21.2273 8.45825L17.3743 8.45825C17.3709 7.23113 17.3512 6.21031 17.2391 5.37621C17.0979 4.32608 16.7958 3.4419 16.0936 2.73966C15.3914 2.03743 14.5072 1.73538 13.457 1.5942C12.4456 1.45821 11.1595 1.45823 9.56402 1.45825ZM17.375 24.7916V10.2083H21.1667C22.2913 10.2083 23.0468 10.2101 23.6104 10.2859C24.1487 10.3583 24.3792 10.4834 24.5312 10.6354C24.6832 10.7874 24.8083 11.0178 24.8807 11.5562C24.9565 12.1198 24.9583 12.8752 24.9583 13.9999V20.9999C24.9583 22.1246 24.9565 22.8801 24.8807 23.4436C24.8083 23.982 24.6832 24.2124 24.5312 24.3645C24.3792 24.5165 24.1487 24.6416 23.6104 24.714C23.0468 24.7897 22.2913 24.7916 21.1667 24.7916H17.375Z" fill="#067647"/>
<path d="M6.58333 6.12492C6.10008 6.12492 5.70833 6.51667 5.70833 6.99992C5.70833 7.48317 6.10008 7.87492 6.58333 7.87492H7.75C8.23325 7.87492 8.625 7.48317 8.625 6.99992C8.625 6.51667 8.23325 6.12492 7.75 6.12492H6.58333Z" fill="#067647"/>
<path d="M11.25 6.12492C10.7668 6.12492 10.375 6.51667 10.375 6.99992C10.375 7.48317 10.7668 7.87492 11.25 7.87492H12.4167C12.8999 7.87492 13.2917 7.48317 13.2917 6.99992C13.2917 6.51667 12.8999 6.12492 12.4167 6.12492H11.25Z" fill="#067647"/>
<path d="M6.58333 9.62492C6.10008 9.62492 5.70833 10.0167 5.70833 10.4999C5.70833 10.9832 6.10008 11.3749 6.58333 11.3749H7.75C8.23325 11.3749 8.625 10.9832 8.625 10.4999C8.625 10.0167 8.23325 9.62492 7.75 9.62492H6.58333Z" fill="#067647"/>
<path d="M11.25 9.62492C10.7668 9.62492 10.375 10.0167 10.375 10.4999C10.375 10.9832 10.7668 11.3749 11.25 11.3749H12.4167C12.8999 11.3749 13.2917 10.9832 13.2917 10.4999C13.2917 10.0167 12.8999 9.62492 12.4167 9.62492H11.25Z" fill="#067647"/>
<path fill-rule="evenodd" clip-rule="evenodd" d="M7.75008 14.2916C7.4337 14.2916 7.19775 14.4219 7.04988 14.5264C6.93159 14.61 6.81206 14.7204 6.72327 14.8023L5.93426 15.5292L4.86881 15.4873C4.74951 15.4825 4.58852 15.4761 4.44548 15.4888C4.26651 15.5049 4.00501 15.5577 3.76524 15.7591C3.52547 15.9606 3.42841 16.2091 3.38182 16.3827C3.34458 16.5214 3.32324 16.6811 3.30743 16.7994L3.16022 17.8932L2.29997 18.5703C2.20759 18.6429 2.08253 18.7411 1.98305 18.8424C1.85846 18.9692 1.69572 19.1759 1.64216 19.4802C1.5886 19.7844 1.67096 20.0342 1.74475 20.196C1.80365 20.3252 1.88764 20.4602 1.94968 20.56L2.53378 21.5011L2.30204 22.5879C2.27727 22.7035 2.24378 22.8598 2.23207 23.0019C2.21741 23.1799 2.22469 23.4443 2.37981 23.7134C2.53493 23.9825 2.76011 24.1213 2.92144 24.1978C3.05029 24.2589 3.20232 24.3082 3.31477 24.3447L4.34024 24.6787L4.84152 25.6448C4.89688 25.7518 4.97146 25.8959 5.05396 26.0145C5.15711 26.1628 5.33394 26.3653 5.63034 26.4733C5.92673 26.5813 6.19234 26.5401 6.36675 26.493C6.50615 26.4553 6.65585 26.393 6.76702 26.3468L7.75008 25.9391L8.73294 26.3467C8.84412 26.393 8.99393 26.4552 9.13341 26.493C9.30782 26.5401 9.57343 26.5813 9.86982 26.4733C10.1662 26.3653 10.343 26.1628 10.4462 26.0145C10.5287 25.8959 10.6033 25.7518 10.6586 25.6448L11.1599 24.6787L12.1854 24.3447C12.2978 24.3082 12.4499 24.2589 12.5787 24.1978C12.74 24.1213 12.9652 23.9825 13.1203 23.7134C13.2755 23.4443 13.2828 23.1799 13.2681 23.0019C13.2564 22.8598 13.2229 22.7035 13.1981 22.5879L12.9664 21.5011L13.5505 20.56C13.6125 20.4602 13.6965 20.3252 13.7554 20.196C13.8292 20.0342 13.9116 19.7844 13.858 19.4802C13.8044 19.1759 13.6417 18.9692 13.5171 18.8424C13.4176 18.7411 13.2926 18.6429 13.2002 18.5703L12.3399 17.8932L12.1927 16.7994C12.1769 16.6811 12.1556 16.5214 12.1183 16.3827C12.0718 16.2091 11.9747 15.9606 11.7349 15.7591C11.4952 15.5577 11.2336 15.5049 11.0547 15.4888C10.9116 15.4761 10.7506 15.4825 10.6314 15.4873L9.5659 15.5292L8.7769 14.8023C8.68811 14.7204 8.56857 14.61 8.45028 14.5264C8.30241 14.4219 8.06646 14.2916 7.75008 14.2916ZM7.05764 16.8738L7.75008 16.2358L8.44252 16.8738L8.45878 16.8891C8.5255 16.9526 8.70652 17.1249 8.9463 17.2132C9.18608 17.3014 9.43561 17.2875 9.52759 17.2824L9.54993 17.2812L10.4868 17.2444L10.6167 18.209L10.6193 18.2308C10.63 18.3207 10.6588 18.5642 10.7832 18.7821C10.9076 19 11.1028 19.1486 11.1748 19.2034L11.1922 19.2168L11.9528 19.8156L11.4359 20.6486L11.4241 20.667C11.3755 20.7426 11.2437 20.9476 11.2009 21.1932C11.1581 21.4389 11.2127 21.6763 11.2328 21.764L11.2376 21.7853L11.4425 22.7462L10.5381 23.0407L10.5169 23.0473C10.4296 23.0742 10.1929 23.1471 9.99969 23.311C9.80651 23.4749 9.696 23.6966 9.65524 23.7783L9.64526 23.7981L9.20445 24.6477L8.3419 24.29L8.32128 24.2811C8.2365 24.2443 8.00643 24.1445 7.75008 24.1445C7.49373 24.1445 7.26366 24.2443 7.17888 24.2811L7.15826 24.29L6.29571 24.6477L5.85489 23.7981L5.84491 23.7783C5.80416 23.6966 5.69365 23.4749 5.50046 23.311C5.30728 23.1471 5.07053 23.0742 4.98322 23.0473L4.96204 23.0407L4.05764 22.7462L4.26253 21.7853L4.26734 21.764C4.28749 21.6763 4.3421 21.4389 4.29926 21.1932C4.25642 20.9476 4.12466 20.7426 4.07602 20.667L4.06428 20.6486L3.54734 19.8156L4.30797 19.2168L4.32541 19.2034C4.3974 19.1486 4.59251 19 4.71694 18.7821C4.84137 18.5642 4.87018 18.3207 4.88081 18.2308L4.88349 18.209L5.01333 17.2444L5.95023 17.2812L5.97257 17.2824C6.06454 17.2875 6.31408 17.3014 6.55386 17.2132C6.79364 17.1249 6.97466 16.9526 7.04138 16.8891L7.05764 16.8738Z" fill="#067647"/>
</svg>
