<svg width="29" height="28" viewBox="0 0 29 28" fill="none" xmlns="http://www.w3.org/2000/svg">
<path fill-rule="evenodd" clip-rule="evenodd" d="M11.3346 2.625C8.27406 2.625 5.79297 5.10609 5.79297 8.16667C5.79297 11.2272 8.27406 13.7083 11.3346 13.7083C14.3952 13.7083 16.8763 11.2272 16.8763 8.16667C16.8763 5.10609 14.3952 2.625 11.3346 2.625ZM7.54297 8.16667C7.54297 6.07259 9.24056 4.375 11.3346 4.375C13.4287 4.375 15.1263 6.07259 15.1263 8.16667C15.1263 10.2607 13.4287 11.9583 11.3346 11.9583C9.24056 11.9583 7.54297 10.2607 7.54297 8.16667Z" fill="#067647"/>
<path d="M18.3346 2.625C17.8514 2.625 17.4596 3.01675 17.4596 3.5C17.4596 3.98325 17.8514 4.375 18.3346 4.375C20.4287 4.375 22.1263 6.07259 22.1263 8.16667C22.1263 10.2607 20.4287 11.9583 18.3346 11.9583C17.8514 11.9583 17.4596 12.3501 17.4596 12.8333C17.4596 13.3166 17.8514 13.7083 18.3346 13.7083C21.3952 13.7083 23.8763 11.2272 23.8763 8.16667C23.8763 5.10609 21.3952 2.625 18.3346 2.625Z" fill="#067647"/>
<path fill-rule="evenodd" clip-rule="evenodd" d="M2.29297 22.1667C2.29297 18.4618 5.29639 15.4583 9.0013 15.4583H13.668C17.3729 15.4583 20.3763 18.4618 20.3763 22.1667C20.3763 23.9386 18.9399 25.375 17.168 25.375H5.5013C3.72939 25.375 2.29297 23.9386 2.29297 22.1667ZM9.0013 17.2083C6.26289 17.2083 4.04297 19.4283 4.04297 22.1667C4.04297 22.9721 4.69589 23.625 5.5013 23.625H17.168C17.9734 23.625 18.6263 22.9721 18.6263 22.1667C18.6263 19.4283 16.4064 17.2083 13.668 17.2083H9.0013Z" fill="#067647"/>
<path d="M20.668 15.4583C20.1847 15.4583 19.793 15.8501 19.793 16.3333C19.793 16.8166 20.1847 17.2083 20.668 17.2083C23.4064 17.2083 25.6263 19.4283 25.6263 22.1667C25.6263 22.9721 24.9734 23.625 24.168 23.625H22.418C21.9347 23.625 21.543 24.0168 21.543 24.5C21.543 24.9832 21.9347 25.375 22.418 25.375H24.168C25.9399 25.375 27.3763 23.9386 27.3763 22.1667C27.3763 18.4618 24.3729 15.4583 20.668 15.4583Z" fill="#067647"/>
</svg>
